<?xml version="1.0" encoding="utf-8"?>
<!-- Generator: Adobe Illustrator 22.1.0, SVG Export Plug-In . SVG Version: 6.00 Build 0)  -->
<svg version="1.1" id="Helmet" xmlns="http://www.w3.org/2000/svg" xmlns:xlink="http://www.w3.org/1999/xlink" x="0px" y="0px"
	 viewBox="0 0 1296 1728" style="enable-background:new 0 0 1296 1728;" xml:space="preserve">
<style type="text/css">
	.st0{fill:#A7ADB1;}
	.st1{fill:#760F19;}
</style>
<path id="Shell" class="st0" d="M924.8,856.1c13.1-9.9,17.4-29,22-26.7c5.3,0.9,6.7,8.3,6.7,18.3l62.2,37.3l5.2-0.9l-13.1-57.7
	c-12.6,0.4-22.4-0.9-27.3-5.2c8.2-4.1,14.6-8.4,19.6-8.1c3.7,0.1,6.3,2.6,8,7.7c1.4,9.1,3.4,15.1,6.7,14.2c0.8-1.6-1.7-9.9-2.4-14.9
	c1.4-3.6,2.3-6.7,1.1-7.5l-1.8-2.5c0.6-1.3,0.8-3-0.6-6.1c1.4-2.6,2.4-5.2,1-7.5c-3-6.1-9.5-12.6-16.8-20.4l-7.3-42.3h-6
	c-23.8,5.8-44.1,15.4-59.4,30.5c-15.6,19.8-25.1,40.8-21.5,64.2l19.4,2.2C924.6,834.4,925.5,843.9,924.8,856.1z"/>
<g id="Fringe">
	<path class="st1" d="M981.8,733.6c-28.2,8.3-49.3,19.2-60.1,31.4c-19.5,23-24.2,50.5-20.8,63.3l-33.6,1.4
		c-1.8-42,3.7-61.8,16.7-79.8c33.9-39.1,75.1-55.1,110.5-48.7l-9.2,32.4C984.2,734.1,983.1,733.3,981.8,733.6z"/>
	<path class="st1" d="M981.9,733.6c-28.2,8.3-49.3,19.2-60.1,31.4c-18.2,23.2-23.5,47.8-20.8,63.3l-33.6,1.4
		c-1.8-42.1,89.4-129.3,125.3-123.3l-7.3,27.3C984.2,734.1,983.1,733.3,981.9,733.6z"/>
</g>
</svg>
