<?xml version="1.0" encoding="utf-8"?>
<!-- Generator: Adobe Illustrator 22.1.0, SVG Export Plug-In . SVG Version: 6.00 Build 0)  -->
<svg version="1.1" id="Layer_1" xmlns="http://www.w3.org/2000/svg" xmlns:xlink="http://www.w3.org/1999/xlink" x="0px" y="0px"
	 viewBox="0 0 15 15" style="enable-background:new 0 0 15 15;" xml:space="preserve">
<style type="text/css">
	.st0{fill:#A7ADB1;}
	.st1{fill:#760F19;}
</style>
<path id="Shell" class="st0" d="M5.7,12.7c1.3-0.8,1.7-2.4,2.1-2.2c0.5,0.1,0.6,0.7,0.6,1.5l6,3l0.5-0.1l-1.3-4.7
	c-1.2,0-2.2-0.1-2.6-0.4c0.8-0.3,1.4-0.7,1.9-0.7c0.4,0,0.6,0.2,0.8,0.6c0.1,0.7,0.3,1.2,0.6,1.2c0.1-0.1-0.2-0.8-0.2-1.2
	c0.1-0.3,0.2-0.5,0.1-0.6L14,8.9c0.1-0.1,0.1-0.2-0.1-0.5c0.1-0.2,0.2-0.4,0.1-0.6c-0.3-0.5-0.9-1-1.6-1.7l-0.7-3.5h-0.6
	C8.9,3.2,6.9,4,5.4,5.2C3.9,6.8,3,8.5,3.4,10.4l1.9,0.2C5.6,10.9,5.7,11.7,5.7,12.7z"/>
<g id="Fringe">
	<path class="st1" d="M11.2,2.7C8.4,3.4,6.4,4.3,5.4,5.3c-1.9,1.9-2.3,4.1-2,5.2l-3.2,0.1c-0.2-3.4,0.4-5,1.6-6.5
		C5,0.8,9-0.5,12.4,0.1l-0.9,2.6C11.4,2.7,11.3,2.7,11.2,2.7z"/>
	<path class="st1" d="M11.2,2.7C8.4,3.4,6.4,4.3,5.4,5.3c-1.8,1.9-2.3,3.9-2,5.2l-3.2,0.1C-0.1,7.1,8.7,0,12.2,0.5l-0.7,2.2
		C11.4,2.7,11.3,2.7,11.2,2.7z"/>
</g>
</svg>
