<!--?xml version="1.0" encoding="utf-8"?-->
<!-- Generator: Adobe Illustrator 19.1.1, SVG Export Plug-In . SVG Version: 6.00 Build 0)  -->
<svg version="1.1" id="_x31_0" xmlns="http://www.w3.org/2000/svg" xmlns:xlink="http://www.w3.org/1999/xlink" x="0px" y="0px" viewBox="0 0 512 512" style="width: 100%;" xml:space="preserve">
<style type="text/css">
	.st0{fill:#374149;}
</style>
<g>
	<path class="st0" d="M447.459,481.031V243.234c0-17.09-13.87-30.91-30.965-30.91h-46.726h-49.949H192.182h-49.946h-46.73
		c-17.148,0-30.965,13.821-30.965,30.91v237.797c0,17.094,13.817,30.969,30.965,30.969h320.988
		C433.588,512,447.459,498.125,447.459,481.031z M284.912,353.95c-8.324,8.656-12.262,20.586-12.262,32.574v35.294
		c0,14.484-18.649,24.699-33.297,7.992v-49.946c0-9.324-4.055-18.09-10.879-24.473c-8.156-7.602-13.098-18.535-12.707-30.691
		c0.278-8.988,3.606-18.699,10.711-28.078c6.054-4.617,12.218-7.605,18.258-9.242c0.133-0.035,0.27-0.074,0.406-0.11
		c8.047-2.102,15.848-1.782,22.832,0.398c0.047,0.015,0.094,0.031,0.145,0.047c12.324,3.898,22.086,13.57,26.098,25.855
		c0.004,0.004,0.004,0.012,0.004,0.012c1.148,3.519,1.824,7.25,1.957,11.117c0.058,0.446,0.058,0.946,0.058,1.39
		C296.236,336.91,291.904,346.734,284.912,353.95z" style="fill: rgb(75, 75, 75);"></path>
	<path class="st0" d="M142.236,113.766v82.715v0.254v0.16h49.633h0.149h0.164v-83.129c0-35.187,28.578-63.82,63.82-63.82
		c35.184,0,63.817,28.633,63.817,63.82v83.129h49.949v-83.129C369.768,51.05,318.709,0,256.002,0
		C193.236,0,142.236,51.05,142.236,113.766z" style="fill: rgb(75, 75, 75);"></path>
</g>
</svg>
