<!--?xml version="1.0" encoding="utf-8"?-->
<!-- Generator: Adobe Illustrator 18.1.1, SVG Export Plug-In . SVG Version: 6.00 Build 0)  -->

<svg version="1.1" id="_x31_0" xmlns="http://www.w3.org/2000/svg" xmlns:xlink="http://www.w3.org/1999/xlink" x="0px" y="0px" viewBox="0 0 512 512" style="width: 20px; height: 20px; opacity: 1;" xml:space="preserve">
<style type="text/css">
	.st0{fill:#374149;}
</style>
<g>
	<path class="st0" d="M256,131.875c-20.984,0-38.058,21.027-38.058,46.871v20.492h76.117v-20.492
		C294.058,152.902,276.984,131.875,256,131.875z" style="fill: rgb(75, 75, 75);"></path>
	<path class="st0" d="M256.004,238.547c-14.504,0-26.305,11.801-26.305,26.301c0,7.969,3.531,15.402,9.695,20.39l1.59,1.289
		l-0.117,2.047l-0.019,29.058c0,8.355,6.801,15.156,15.156,15.156c8.351,0,15.148-6.801,15.148-15.156v-28.25l-0.136-2.852
		l1.594-1.289c6.16-4.992,9.695-12.426,9.695-20.394C282.305,250.348,270.508,238.547,256.004,238.547z" style="fill: rgb(75, 75, 75);"></path>
	<path class="st0" d="M256,0C114.614,0,0,114.61,0,256c0,141.383,114.614,256,256,256s256-114.617,256-256
		C512,114.61,397.386,0,256,0z M371.258,378.848H140.742v-179.61h46.476v-20.492c0-42.786,30.856-77.594,68.782-77.594
		c37.926,0,68.782,34.809,68.782,77.594v20.492h46.476V378.848z" style="fill: rgb(75, 75, 75);"></path>
</g>
</svg>
