<!--?xml version="1.0" encoding="utf-8"?-->
<!-- Generator: Adobe Illustrator 18.1.1, SVG Export Plug-In . SVG Version: 6.00 Build 0)  -->

<svg version="1.1" id="_x31_0" xmlns="http://www.w3.org/2000/svg" xmlns:xlink="http://www.w3.org/1999/xlink" x="0px" y="0px" viewBox="0 0 512 512" style="width: 100%;" xml:space="preserve">
<style type="text/css">
	.st0{fill:#374149;}
</style>
<g>
	<path class="st0" d="M309.348,131.066h-6.707H17.222C7.711,131.066,0,138.782,0,148.293v215.418
		c0,9.511,7.711,17.222,17.222,17.222h292.126c9.515,0,17.23-7.711,17.23-17.222V148.293
		C326.578,138.782,318.863,131.066,309.348,131.066z M29.691,351.246v-7.61c30.114-24.153,60.219-48.309,90.325-72.477
		l31.496,25.137c6.301,5.027,15.238,5.016,21.527-0.027l33.519-26.89c30.114,24.007,60.226,48.015,90.328,72.035v9.832H30.344
		H29.691z M296.886,168.328c-41.293,33.137-82.59,66.278-123.89,99.406c-6.285,5.039-15.222,5.054-21.519,0.031
		c-40.598-32.367-81.195-64.726-121.786-97.102v-9.906h266.485h0.71V168.328z M102.121,256.984
		c-14.87,11.938-29.75,23.871-44.621,35.805l-17.094,13.664l-10.715,8.442V199.129c19.809,15.813,39.622,31.618,59.442,47.418
		l10.711,8.57L102.121,256.984z M296.726,312.782c-19.859-15.844-39.726-31.68-59.594-47.516l-10.57-8.453l-2.145-1.758
		c24.149-19.402,48.309-38.801,72.469-58.191v71.516l-0.038,27.469L296.726,312.782z" style="fill: rgb(75, 75, 75);"></path>
	<polygon class="st0" points="511.95,155.539 512,155.383 361.754,155.383 361.754,186.707 361.754,186.898 361.754,186.898
		361.754,187.062 501.969,187.062 509.656,162.785 512,155.539 	" style="fill: rgb(75, 75, 75);"></polygon>
	<polygon class="st0" points="361.754,210.981 361.754,242.305 361.754,242.5 361.754,242.5 361.754,242.66 484.359,242.66
		492.066,218.324 494.394,211.141 494.344,211.141 494.394,210.981 	" style="fill: rgb(75, 75, 75);"></polygon>
	<polygon class="st0" points="361.754,266.578 361.754,297.906 361.754,298.098 361.754,298.098 361.754,298.258 466.754,298.258
		474.446,273.977 476.785,266.738 476.738,266.738 476.789,266.578 	" style="fill: rgb(75, 75, 75);"></polygon>
</g>
</svg>
