<svg version="1.1" id="_x31_0" xmlns="http://www.w3.org/2000/svg" xmlns:xlink="http://www.w3.org/1999/xlink" x="0px" y="0px" viewBox="0 0 512 512" style="width: 100%;" xml:space="preserve">
<style type="text/css">
	.st0{fill:#374149;}
</style>
<g>
	<path class="st0" d="M358.232,215.406c1.551-1.898,3.078-3.821,4.524-5.801c0.41-0.566,0.781-1.153,1.179-1.722
		c1.352-1.922,2.687-3.852,3.938-5.848c0.23-0.371,0.438-0.754,0.664-1.129c12.313-20.062,19.457-43.633,19.457-68.898
		C387.994,59.11,328.912,0,255.987,0c-72.898,0-131.981,59.11-131.981,132.008c0,25.289,7.156,48.882,19.488,68.953
		c0.223,0.359,0.418,0.73,0.641,1.09c1.226,1.95,2.531,3.84,3.855,5.723c0.438,0.621,0.84,1.266,1.29,1.878
		c1.336,1.832,2.75,3.602,4.179,5.36c0.473,0.582,0.91,1.187,1.395,1.762c1.758,2.098,3.598,4.125,5.48,6.11
		c0.168,0.171,0.321,0.359,0.485,0.531c10.664,11.102,23.23,20.359,37.203,27.202v27.586v192.355L255.998,512l43.266-41.442v-37.996
		l-22.09-32.125l22.09-32.129l-22.09-32.126l36.805-29.789v-28.195v-27.586c16.707-8.184,31.414-19.809,43.238-33.926
		C357.568,216.266,357.889,215.828,358.232,215.406z M255.998,122.434c-18.746,0-33.945-15.199-33.945-33.95
		c0-18.746,15.199-33.945,33.945-33.945c18.75,0,33.95,15.199,33.95,33.945C289.948,107.234,274.748,122.434,255.998,122.434z" style="fill: rgb(165, 165, 165);"></path>
</g>
</svg>
