<svg version="1.1" id="_x31_0" xmlns="http://www.w3.org/2000/svg" xmlns:xlink="http://www.w3.org/1999/xlink" x="0px" y="0px" viewBox="0 0 512 512" style="width: 100%;" xml:space="preserve">
<style type="text/css">
	.st0{fill:#374149;}
</style>
<g>
	<path class="st0" d="M45.949,488.152C104.585,503.117,177.308,512,256.109,512c78.718,0,151.355-8.883,209.918-23.762
		c10.082-2.558,16.321-12.481,14.481-22.726c-0.43-2.414-1.062-4.676-1.586-7.024c-0.094-0.426-0.191-0.859-0.289-1.285
		c-0.558-2.426-1.012-4.938-1.645-7.289c-1.121-4.157-2.32-8.164-3.762-11.997c-0.621-1.937-1.41-3.675-2.117-5.519
		c-0.047-0.125-0.098-0.25-0.145-0.375c-0.797-2.062-1.515-4.218-2.375-6.191c-7.363-17.434-16.32-30.633-23.441-37.117
		c-9.122-8.402-50.402-29.356-85.598-47.278c-25.683-13.203-40.164-24.641-44.32-28.406v-22.234v-12.238
		c1.918-0.726,3.758-2.082,5.516-4.004c0.32-0.316,0.644-0.64,0.882-1.042c4.879-5.512,8.879-11.754,10.879-17.594
		c0.238-0.718,0.48-1.441,0.718-2.16c4.402-12.484,7.762-26.554,8.402-30.562c0.078-0.402,0.078-0.718,0.16-1.039
		c1.84,0.555,3.598,0.797,5.118,0.797c18.562,0,26.164-38,27.203-47.996c1.121-10.078-7.844-16.957-11.122-19.602
		c0.719-1.602,1.598-3.996,2.481-6.801c0.078-0.16,0.16-0.402,0.238-0.637c1.121-3.441,2.718-8.082,4.16-14.558
		c0.879-3.847,1.68-8.402,2.402-13.766c0.477-3.277,0.558-6.797,0.398-10.234c-0.242-7.203-1.762-14.648-4.398-21.445
		c-2.16-5.918-5.203-11.36-8.883-15.758l-0.078-0.082c-2.562-3.035-5.438-6.16-8.485-8.961
		c-11.996-11.602-26.156-20.962-32.797-20.962c-13.438-24.156-30.641-39.835-62.48-41.996c-1.918-0.082-3.836-0.082-5.918-0.156
		h-0.402c-24,0-64.48,20.637-85.117,48.797c0,0.082,0,0.082,0,0.082c-2.082,2.801-3.922,5.675-5.52,8.558
		c-2.722,4.957-5.203,9.598-7.281,14c-3.359,7.121-5.922,13.758-7.52,20.394c-0.961,3.121-1.602,6.32-1.922,9.606
		c-1.359,9.278-1.121,19.117,0.722,30.957v0.078c0.719,4.886,1.68,10.164,2.961,15.84c0.078,0.082,0.078,0.164,0.078,0.242
		c0.961,2.805,1.758,5.199,2.641,6.801c-3.203,2.645-11.121,7.039-10.16,17.043c1.035,10.074,7.519,50.554,26.078,50.554
		c1.672,0,3.426-0.242,5.332-0.793c0.012,0,0.02,0,0.028,0c0.324,3.203,2.003,12.317,5.441,21.594
		c0.962,2.719,2.078,6.161,3.282,9.762c0.238,0.718,0.477,1.363,0.718,2.082c2,5.762,5.758,11.996,10.481,17.355
		c0.481,0.559,1.039,1.126,1.519,1.68c1.758,1.844,3.602,3.199,5.52,3.926v11.996v22.477c-4.078,3.766-18.641,15.286-44.238,28.406
		c-35.199,17.996-76.32,38.961-85.442,47.278c-7.117,6.402-16.082,19.683-23.519,37.117c-1.602,3.848-3.203,7.848-4.641,12.086
		c-1.359,3.833-2.641,7.84-3.68,11.997c-1.441,5.038-2.558,10.238-3.519,15.598C29.707,475.758,35.949,485.594,45.949,488.152z" style="fill: rgb(165, 165, 165);"></path>
</g>
</svg>
