<?xml version="1.0" encoding="UTF-8"?>
<svg enable-background="new -8.5882 139.8356 1381.5881 1526.4631" version="1.1" viewBox="-8.5882 139.8356 1381.5881 1526.4631" xmlns="http://www.w3.org/2000/svg">
 <path d="m1338.5 784.59c-3.6799-8.15-7.04-16.54-12.27-23.85-4.85-6.97-10.7-13.69-18.46-17.46-2.1801-1.2-5.04-1.34-6.46-3.6-3.41-4.2701-6.86-8.5101-10.24-12.8-0.99-1.08-1.04-2.63-1.3301-3.9601-1.1-6.51-3.22-13.05-7.4-18.26-3.2799-4.2-7.85-7.1899-12.69-9.2999-11.6-4.8199-24.26-6.08-36.12-10.06-32.71-13.78-66.33-25.25-99.93-36.65-3.5199-0.77-5.3099-4.14-7.75-6.4301-1.9099-2.28-4.8999-4.02-5.0699-7.29-2.3201-12.69-11.7-22.57-21.75-29.95-7.92-5.8-18.06-9.61-27.93-7.45-9.86 2.0699-18.19 8.55-24.74 15.95-4.1699 6.02-8.49 11.98-13.59 17.26-21.01 21.81-49.38 34.9-69.83 57.32-4.6099 4.98-8.4399 10.59-12.34 16.12-2.8901-6.1299-5.1801-12.82-10.03-17.75-3.3801-3.5599-7.8101-5.83-12.17-7.9399-6-32.04-22.84-60.56-40.23-87.63-6.15-9.21-11.29-19.04-17.07-28.47 4.95 5.0199 12.16 6.12 18.58 8.0199 5.3301 5.2 10.73 11.31 18.37 12.9 5.1799 1.1299 9.83-2.53 12.21-6.8301 4.0801-0.12 8.3201-0.45 11.94-2.53 8.8-5.03 16.8-12.1 21.12-21.43 5.9399-12.59 6.4399-26.81 7.3799-40.45 1.5-3.2401 4.05-6.2001 4.1201-9.9701 0.79-6.9501-4.75-12.27-9.6201-16.32-11.28-9.22-16.31-23.31-23.51-35.5-10.36-18.12-18.4-38.15-19.06-59.26-0.4301-4.3201 0.7999-8.71-0.14-12.97-4.6537-12.861-11.101-25.115-19.439-35.95 2.7108-2.4583 5.1257-5.1963 7.1016-8.2949 1.2043-1.8892 2.3093-3.8065 3.0558-5.813 0.9816-2.2175 1.5715-4.6879 3.2094-6.5046 4.1995-0.3413 7.8745-2.3984 11.379-4.8074 3.8191-2.6255 7.0898-5.8645 9.8901-9.5132 2.9021-3.7817 5.4388-7.7244 5.9434-12.43 0.0554-0.5166 0.3428-0.609 0.7771-0.6837 4.0564-0.6982 7.681-2.6024 11.095-4.8511 3.5159-2.3154 6.652-5.1311 9.4932-8.2297 3.5217-3.8408 6.772-7.8452 8.4971-12.726 0.2134-0.6036 0.5813-0.9493 1.2251-1.1598 1.0547-0.3451 2.1023-0.7476 3.1133-1.2188 4.9388-2.302 9.3008-5.4854 13.332-9.1067 4.8058-4.3176 9.2704-8.9304 12.547-14.468 0.2858-0.4829 0.5953-0.9249 1.137-1.183 4.6422-2.2115 8.8693-5.0565 12.91-8.254 5.4203-4.2888 10.477-8.9216 14.989-14.104 1.3414-1.5408 2.7041-2.9337 4.5431-3.9785 3.548-2.0159 6.8331-4.4419 10.067-6.9524 4.0814-3.1688 7.98-6.5396 11.892-9.8979 2.4264-2.0834 4.5754-4.5334 7.1724-6.3591 7.3435-5.1626 14.465-10.601 21.45-16.22 1.0552-0.8489 2.2607-1.6033 2.9484-2.8402-3.6549 1.7119-6.9889 3.9242-10.434 5.9379-4.1078 2.4014-8.2285 4.78-12.322 7.2061-3.4052 2.0178-6.8394 3.9968-10.15 6.1638-3.3436 2.1882-6.7384 4.3184-9.8533 6.844-0.7522 0.6099-1.6018 1.0493-2.4799 1.449-2.2522 1.0253-4.5188 2.0232-6.7329 3.1321-4.4999 2.2535-8.9495 4.5945-13.215 7.3127-3.5851 2.2847-7.1663 4.5647-10.358 7.3705-1.4091 1.2389-2.8367 2.0917-4.6598 2.6757-11.016 3.5283-21.251 8.6321-29.886 16.647-1.532 1.4221-2.9326 2.4406-5.1394 2.6852-4.3541 0.4827-8.5062 2.1643-12.546 4.0012-7.2595 3.3008-13.991 7.3988-19.247 13.56-0.3053 0.3578-0.6251 0.5713-1.1075 0.5831-4.0436 0.0988-7.9906 0.9066-11.912 2.2325-8.6975 2.9406-16.452 7.3086-22.434 14.491-0.3867 0.4644-0.7882 0.7014-1.4121 0.7034-4.0535 0.012-8.056 0.4327-12.08 1.6162-2.4304 0.7148-4.7765 1.562-7.0334 2.5538-4.9307-4.5865-11.624-6.3844-17.676-8.9891-23.83-9.53-49.62-12.59-75.1-13.45-8.3501-0.27-16.65-1.24-24.97-1.85-10.71-0.9401-21.58-1.9301-31.77-5.58-10.06-3.3301-18.92-9.3101-27.52-15.34 4.36 4.9399 9.35 9.3 14.46 13.44 9 7.1201 20.07 10.88 31.04 13.76-18.81-1.25-37.33-5.3899-55.29-10.97-11.01-3.1699-23.03-5.4199-34.23-1.8799-10.08 3.2999-17.58 11.53-23.11 20.26 6.65-6.9202 14.58-13.22 24.27-14.99 15.12-2.9102 30.04 2.5898 44.21 7.2599-11.28-1.42-22.76-4.5199-34.13-2.17-8.9099 1.66-16.19 7.98-21.17 15.29 4.76-4.04 10.02-7.76 16.14-9.3999 9.8501-2.8201 20.23-0.8801 30.08 0.98-13.29 3.0499-26.62 7.21-37.89 15.12-9.58 6.6001-21.34 10.7-33.08 9.1801-7.3901-0.6901-14.25-3.6-21.01-6.46 4.22 4.15 8.83 8.12 14.31 10.5 8.2101 3.65 17.37 2.23 26.04 1.97-9.59 2.53-19.57 5.4601-29.55 3.4601-11.03-1.9601-19.9-9.3101-28.35-16.15 4.85 6.92 9.37 14.37 16.12 19.65 6.41 4.98 14.63 6.5599 22.54 7.1399-6.6499 0.5801-13.59 0.76-19.89-1.79-7.5701-2.8499-13.17-8.8999-19.41-13.76 5.75 7.5601 11.73 15.58 20.52 19.79 6.0299 3.1001 12.87 3.6301 19.44 4.8101-4.05 0.34-7.9301 1.62-11.91 2.39-14.42 3.17-29.04 6.2599-42.5 12.52-14.24 6.53-26.35 17.06-36.11 29.19 7.3999-6.48 14.81-13.12 23.55-17.75 6.78-3.64 13.94-6.63 21.34-8.76-16.06 8.0599-30.97 18.73-43.21 31.94-7.45 8.33-14.08 18.42-14.66 29.91-0.54 10.23 5.1499 19.76 12.78 26.18-4.09-5.99-8.5199-12.62-7.85-20.23 0.89-9.2001 7.0701-16.61 12.44-23.69-3.6899 9.71-7.71 20.45-4.7 30.89 2.8 9.33 11.94 14.58 20.49 17.82-5.6599-4.0499-11.66-8.8899-13.31-16.02-1.5699-7.01 2.24-13.76 6.7301-18.84 9.95-10.99 23.22-18.09 36.15-24.95-8.8701 9.38-19.99 17.47-24.94 29.82-3.9 10.03-0.14 20.85 4.6901 29.83-1.1001-6.3101-3.0901-12.85-0.99-19.2 3.03-9.7201 11.57-16.08 18.09-23.41-0.92 6.39-2.53 12.65-4.37 18.82-3.97 12.65-9.25 25.35-18.35 35.22-5.5699 6.1001-13.81 10.63-22.29 9.01-10.35-1.99-17.91-9.9399-24.83-17.27 4.6799 7.0901 9.5 14.73 17.12 18.99 7.1602 3.92 15.57 2.8201 23.27 1.5901-9.48 4.52-20.73 8.4199-31.01 4.14-10.48-4.4901-15.68-15.67-18.84-25.95 0.8398 10.74 3.2 22.59 11.55 30.14 8.48 7.3 20.18 8.3199 30.86 9.16-8.1799 0.54-16.74 1.39-24.59-1.54-6.6197-2.3999-11.79-7.3798-17-11.92 6.2599 10.71 17.49 17.86 29.53 20.24 13.96 2.96 28.47-0.3401 41.04-6.66-3 6.0499-8.45 10.79-15.04 12.46-12.78 3.3298-26.66 2.6299-38.7 8.6299-8.52 4.41-12.39 14.08-14.11 23.01 3.27-7.48 9.0399-14.1 16.89-16.86 11.04-3.85 22.97-3.0499 34.46-2.85-6.8999 1.6599-13.87 3.13-20.56 5.51-7 2.45-14.74 5.96-17.85 13.19-2.7001 7.15 0.5898 14.54 3.6099 21-0.1599-4.0599-1.74-8.2-0.0699-12.15 2-5.53 8-7.98 13.35-9.02 7.64-1.42 15.47-1.5701 23.23-1.3701-7.6899 2.53-15.62 6.6702-19.49 14.14-4.09 7.6899-2.9399 16.68-2.24 24.98-1.75 7.6399-3.51 15.32-4.1599 23.15-2.17 19.51 1.2 40.11 11.91 56.81 8.1001 12.55 19.46 23 32.46 30.32-7.5999-6.6901-14.76-14.09-19.86-22.91-6.4001-10.79-8.04-23.83-6.51-36.13 0.6599-9.37 3.47-18.42 4.22-27.77 1.51 0.96 1.1499 2.78 0.21 4.02-0.99 15.32-2.0701 31.21 3.16 45.95 5.23 15.1 17.15 26.71 29.98 35.67-4.52-4.41-9.01-8.91-12.62-14.11-7.3-9.97-11.26-22.36-10.73-34.73 0.6399-17.68 7.76-34.14 14-50.41-2.13 13.77-6.54 27.29-6.3601 41.35 0.1201 9.6899 3.3901 19.09 8.25 27.39 3.8101 7.17 9.6702 13.1 12.62 20.75 3.76 8.6901 5.1599 19.4-0.15 27.78-6.01 9.4701-18.26 12.96-28.92 11.53-10.34-1.1599-19.68-6.5499-27.21-13.53 4.54 6.1001 8.6699 13.01 15.49 16.86 6.7 3.6599 14.52 3.96 21.89 5.24-18.25 1.52-36.58 5.14-53.3 12.81-7.02 3.48-14.44 7.75-18 15.08-2.51 5.0299-1.1901 11.12 1.8899 15.6 4.9 7.24 12.17 12.51 19.58 16.96-5.1901-4.73-11.51-9.36-13.23-16.54-1.0901-4.9 3.2799-8.71 7.3298-10.44 10.21-4.54 21.6-5.1799 32.58-6.09 6 0.0599 12.04-1.26 18-0.2001-6.25 0.5801-12.47 1.74-18.46 3.6001-3.3201 1.1899-6.98 2.6899-8.8601 5.8699-1.48 2.9801-0.1699 6.4301 1.6801 8.9401 3.6801 5.07 8.79 8.88 13.92 12.38-3.1899-3.74-5.9299-8.01-6.5701-12.99 0.91-5.03 5.5801-7.82 10.12-9.1499 14.53-4.27 29.92-2.7301 44.69-5.52 12.21-2.4401 25.08-7.8901 31.69-19.06 4.8201-7.9 4.67-17.53 3.3701-26.37 3.3899 8.16 5.3899 17.45 2.3999 26.06-3.8199 11.78-14.35 19.84-25.26 24.72-12.31 5.7099-25.88 7.6199-39.25 8.8399 16.53 0.09 33.31 1.1 49.56-2.73 8.6799-1.76 16.82-5.3301 24.91-8.8301-8.0499 8.27-17.44 16.17-29.08 18.45-8.1901 2.03-16.7 0.92-24.98 1.9 8.34 1.18 16.6 3.43 25.1 3.16 9.0701 0.23 17.76-2.75 26.26-5.55-6.73 6.6201-14.21 13.93-24.09 14.91-7.35 0.91-14.41-1.72-21.57-2.81 6.77 3.52 13.74 7.16 21.44 8.04 8.25 1.2 16.35-1.33 24.34-3.02-30.5 42.67-69.87 78.54-113.57 107.33-11.32 1.54-22.72 2.62-33.9 5.06-13.5 2.97-27.21 7.43-37.94 16.48-4.72 4.48-10.5 7.56-15.77 11.32-16.17 11.09-32.55 22.81-43.97 39.04-9.29 13.06-14.43 28.52-17.79 44.06-11.13 1.44-22.33-0.8-32.96-3.97-16.87-5.14-32.9-12.75-48.11-21.63-11.63-7.02-23.11-14.64-32.57-24.46-3.84-5.08-9.66-7.94-14.77-11.5-16.28-10.4-33.83-19.81-53.1-23-12.34-2.09-25.51-0.55-36.5 5.65-12.44 6.9-21.61 18.38-28.58 30.54-8.89 15.52-14.76 32.56-19.65 49.7-11.28-0.85-23.54-1.14-33.14-7.9301-8.66-6.34-13.09-16.49-17.65-25.85 2.19 8.38 3.42 17.26 7.98 24.8 2.96 4.51 7.03 8.23 11.51 11.21-11.64-4.75-23.76-11.94-28.55-24.21-4.58-11.51-1.81-23.94-1.7-35.87-1.62 8.01-4.08 15.86-5.01 24.02-1.47 10.9-0.76 22.72 5.45 32.15 7.45 11.31 19.34 18.7 31.14 24.8-8.76-1.54-17.55-4.09-25.06-8.99-6.74-4.42-11.91-10.69-17.59-16.3 8.1 11.57 17.02 23.18 29.31 30.59 11.63 7.07 25.12 10.04 38.28 12.87 3.21 24.77 11.06 48.61 19.73 71.93-13.29 1.39-26.85 1.02-39.91 4.21-7.38 1.7101-14.61 5.8301-18.24 12.72-4.11 7.87-5.26 17.16-4.08 25.9 1.14-10.91 7.16-22.66 18.31-26.06 11.56-3.49 23.85-2.48 35.77-3.05-10.91 3.64-21.7 9.03-29.47 17.73-4.22 4.65-7.08 11.35-5.03 17.61 2.29 7.38 8.94 12.16 15.26 15.98-3.53-4.23-7.24-9.23-6.63-15.06 1.16-7 7.39-11.56 13.22-14.74 11.53-5.79 24.32-8.9 37.13-10.04 3.45 5.3 7.28 10.36 10.2 15.99 2.63 5.0399 3.99 10.61 5 16.18-8.22 0.8101-16.42 1.84-24.55 3.27-12.96 2.28-26.36 5.9299-36.52 14.74-10.03 8.54-15.47 21.24-17.97 33.93 4.23-8.2201 9.45-16.19 16.97-21.76 11.24-8.5701 25.46-11.61 39.1-14.04-11.19 5.25-23.51 9.58-31.92 19.08-7.27 8.7101-10.66 19.87-13.43 30.68 6.11-11.8 13.95-23.41 25.65-30.26 12.74-7.41 27.55-9.6901 41.74-12.84-0.76 7.12-1.65 14.58-5.67 20.71-4.2 6.49-10.26 11.45-15.82 16.73 5.52-2.33 11.11-4.85 15.7-8.79 4.62-4.2599 7.59-9.8799 11.04-15.05-1.95 8.95-4.1 17.97-8.14 26.25-3.13 6.4399-7.7 12.05-12.64 17.18-22.48-6.59-45.36-14.69-69.14-13.12-19.06 1.24-36.87 11.24-49.11 25.69 10.26-7.4501 21.66-14.06 34.41-15.86 13.49-1.76 27.07 0.64 40.27 3.3099-17.38 0.24-35.78-0.5399-51.71 7.64-15.14 7.9401-24.94 22.83-32.68 37.55 9.09-11.97 19.39-24.26 33.9-29.64 13.31-5.05 27.94-2.22 41.06 1.98 9.27 3.02 18.51 6.26 27.38 10.32-20.75 1.27-41.8 3.02-61.57 9.88-10.61 3.8601-21.45 9.5601-27.44 19.54-4.96 8.03-5.14 18.08-2.9 27.02 1.9301 7.3099 4.92 14.35 8.89 20.79-3.36-8.8201-6.4-18.49-4.11-27.96 1.94-7.74 8.21-13.44 15.06-17 7.04-3.62 14.54-6.4099 22.26-8.1699-8.92 3.84-17.81 8.8199-23.79 16.68-4.76 6.13-6.29 14.39-4.65 21.92 1.55 8.6 6.19 16.15 10.7 23.47-1.07-4.41-2.85-8.65-3.39-13.18-0.94-6.15-0.39-12.93 3.45-18.05 4.78-6.55 12.99-9.3 20.67-10.59 14.88-2.36 29.94-0.11 44.7 2.0399-10.32 0.52-20.8 0.5801-30.85 3.3-7.23 1.98-14.57 5.66-18.51 12.33-4.15 6.98-3.66 15.56-2.13 23.24 1.08-4.7899 2.69-9.6899 6.21-13.26 4.64-4.83 11.58-6.61 18.09-6.61 13.36-0.2999 26.08 4.37 38.63 8.36-7.9-0.7599-15.83-2.3099-23.79-1.4099-9.2599 0.73-17.77 4.9199-25.58 9.6899 3.63-0.58 7.08-1.87 10.66-2.63 10.52-2.4199 21.52-2.7899 32.15-0.9 10.1 1.76 19.79 5.2301 29.32 8.9 12.99 4.6901 26.16 8.9401 39.59 12.19 21.83 5.11 44.87 8.13 66.98 2.9199 16.34-3.62 31.39-12.42 42.78-24.65 11.72-12.61 20.19-27.99 26.16-44.05-2.5 10.99-6.3 21.72-11.18 31.89-6.9301 14.73-17.79 28.01-32.28 35.78-17.82 9.7899-38.55 12.03-58.54 12.61 23.69 1.47 48.02 0.11 70.61-7.67 17.81-6.09 33.86-17.87 43.84-33.96 11.7-18.32 15.63-40.25 17.34-61.58 2.68 10.86 5.55 21.89 4.95 33.18-0.36 11.36-4.9 22.09-10.56 31.78-2.04 3.34-3.75 6.95-6.55 9.75-0.53 0.4299-0.44 3.0499 0.48 1.7 1.76-3.75 4.84-6.61 7.16-9.99 11.55-15.63 19.58-34.56 19.33-54.24 0.1-20.22-7.89-39.38-17.75-56.66 3.54-13.39 4.68-27.65 1.8-41.27-2.66-12.51-9.69-23.91-19.31-32.27 16.14-25 22.37-55.74 18.95-85.17-0.65-2.65 0.88-4.98 2-7.23 0.67 9.7999 0.9 19.85 4.28 29.2 3.19 8.87 9.37 16.34 16.55 22.3-4.93-8.9601-9.18-18.66-9.87-28.99-0.65-11 2.8-21.73 6.79-31.83 1.63 11.4 3.76 23.1 9.88 33.06 2.79 4.21 4.23 9.08 6.37 13.62 7.4 16.34 16.99 31.54 26.22 46.88 2.1 10.86 9.66 19.37 16.6 27.55 4.37 5.3 9.3201 10.29 12.4 16.51 0.7599 1.03 0.0699 2.2201-0.5601 3.1101-18.31 27.85-33.29 57.68-49.01 87.02-6.83 7.8501-15.25 15.4-17.6 26.01-2.24 9.78 2.89 19.13 8.33 26.86-5.52 6.8401-11.67 13.71-14.23 22.3-2.64 9.98 3.08 19.39 7.97 27.63 2.7 3.78 3.81 8.33 5.61 12.55 8.34 20.43 18.82 39.9 29.79 59.02 1.62 2.8401 3.58 5.5701 4.45 8.78 9.37 30.82 21.13 60.82 31.52 91.29 0.79 2.51 0.52 5.1899 0.8101 7.7999 0.67 7.5601 3.03 15.27 8.1899 21.02 3.99 4.5801 9.5801 7.4301 15.39 8.9501 0.1799 8.5299 1.5499 17.02 3.8099 25.25 0.5 2.85 3.64 3.7999 6.0399 4.59 7.8101 2.14 15.97 2.7 24.05 2.75 8.92-0.01 18.12-0.05 26.59-3.2 0.6699-8.39-1.3301-17.01-5.8501-24.13-3.8101-6.2101-9.1299-11.34-14.92-15.68-0.3601-5.86-0.75-12.08-4.0701-17.12-5.52-8.24-14.66-12.8-21.26-20-10.92-10.92-17.35-25.32-22.29-39.73-4.25-12.44-8.75-24.8-12.79-37.3-3.98-12.19-7.9301-24.53-9.26-37.34-1.36-10.74-0.5699-21.61 0.9401-32.29 29.33 38.82 57.81 78.27 86.71 117.41 1.54 1.9 1.49 4.49 2.1299 6.77 2.27 9.62 6.01 19.6 13.93 26.01 5.97 5.02 14.07 6.53 21.68 6.28 1.3201 8.2599 4.51 16.17 9.03 23.2 2.4299 2.75 6.0699 4.03 9.51 5.05 10.99 2.8999 22.55 2.7 33.77 1.5699 5.22-0.97 11.1-1.36 15.23-5.0699-2.3601-6.6901-6.9401-12.25-11.41-17.61-7.2301-8.5-15.34-16.33-24.56-22.63-0.9302-0.6799-2.1901-1.33-2.1501-2.6499-0.49-7.9301-1.2899-16.82-7.22-22.76-6.87-6.6901-16.59-8.8401-24.78-13.32-17.2-15.61-31.55-34.08-44.55-53.24-21.15-31.49-38.51-65.27-56.75-98.46-1.2999-1.58 0.6801-2.92 1.39-4.23 10.88-15.53 23.66-29.7 38.15-41.93 4-3.88 9.3201-5.77 13.95-8.71 9.76-5.54 19.36-12.41 24.91-22.42 4.03-7.01 6.1299-14.89 7.7-22.75 7-5.87 14.09-12.46 17.21-21.29 2.99-8.6801 2.3301-18 2.5901-27.02 8.45-7.36 17.84-14.27 23.47-24.2 5.4399-10.46 5.64-22.57 6.64-34.06 12.45-6.1801 25.11-13.2 33.93-24.24 6.97-8.66 9.95-19.68 11.61-30.47 1.79-12.08 2.7101-24.27 4.3701-36.37 43.62 0.4401 87.32-10.95 125.04-32.89 33.05-19.02 61.39-45.49 84.76-75.48 25.96-33.45 46.15-71.14 61.55-110.51 13.95 1.07 29.49 2.2 41.68-5.99 8.0798-5.36 13.31-13.71 18.69-21.53 10.61-11.39 22.2-21.83 33.13-32.91 27.27-27.43 53.42-56.29 84.25-79.87 23.34 19.04 44.53 41.67 57.51 69.12 0.7899 4.8 1.1 9.68 2.1799 14.43 1.75 9.11 5.8301 17.53 10.35 25.56-1.5699 2.65-3.4299 5.21-4.33 8.18-1.5 4.08 0.62 8.17 1.6 12.1-5.8199 3.97-8.7 11.16-8.38 18.06 0.27 8.46 3.4501 16.94 9.0901 23.29 3.24 3.22 7.0199 5.83 10.73 8.48 4.72 3.17 9.77 6.5 15.6 6.9 4.6899 0.28 8.27-3.49 10.14-7.41 4.47-9.25 6.12-19.51 8.39-29.44 5.11-4.04 9.12-10.02 8.98-16.75-0.0601-9.88-5.72-18.51-11.38-26.17-1.96-3.35-2.89-7.18-4.47-10.71-13.01-33.26-31.58-63.92-50.66-93.98 17.37 4.4001 34.98 8.3401 51.58 15.23 6.8101 3.0601 13.82 6.5 18.66 12.38 4.21 5.11 8.49 10.75 14.87 13.23 6.2 2.18 12.78 0.54 19.07-0.38 0.13 8.01-0.4099 16.59 3.51 23.89 1.5901 3.11 4.75 4.89 7.9701 5.95 1.4299 9.03 2.62 18.52 7.5199 26.44 3.7101 6.21 10.52 9.66 17.29 11.54 10.03 2.81 20.71 5.02 31.1 2.94 4.2301-0.76 8.3501-3.88 8.74-8.41 0.7399-7.1399-2.3402-13.9-4.8402-20.4zm-471.08-228.76c-6.5699-11.1-13.13-22.22-19.46-33.46 6.5901 4.6801 13.66 8.64 20.4 13.09-1.6501 6.6101-2.54 13.66-0.94 20.37z"/>
</svg>
