<svg version="1.1" id="_x31_0" xmlns="http://www.w3.org/2000/svg" xmlns:xlink="http://www.w3.org/1999/xlink" x="0px" y="0px" viewBox="0 0 512 512" style="width: 100%;" xml:space="preserve">
<style type="text/css">
	.st0{fill:#374149;}
</style>
<g>
	<path class="st0" d="M494.39,293.808c-6.828,3.895-14.953,6.074-23.144,6.074c-4.367,0-8.668-0.546-12.832-1.703
		c-7.512-2.046-14.61-5.121-21.164-9.011c-5.598-3.348-10.172-6.898-13.926-10.035h-22.316l-0.344-0.004
		c0,0,0.004,0.004,0.008,0.004h-0.414c0.547,0.234,1.114,0.414,1.602,0.797l2.461,1.926c3.141,2.453,3.703,7.027,1.25,10.168
		l-37.32,47.75c-2.454,3.14-7.028,3.702-10.168,1.246l-2.462-1.918c-3.14-2.458-3.699-7.035-1.246-10.172l37.312-47.75
		c0.512-0.652,1.141-1.113,1.809-1.515c0.309-0.133,0.578-0.305,0.942-0.375l-0.266-0.008c0.09-0.046,0.172-0.109,0.262-0.148
		h-1.012c-4.777,3.957-10.374,8.258-17.886,12.285c-12.488,6.622-27.375,10.172-43.008,10.172h-0.477
		c-7.355,0-14.472-0.785-21.281-2.285l-31.625,40.469c-2.454,3.14-7.031,3.702-10.172,1.246l-2.461-1.918
		c-3.141-2.458-3.703-7.035-1.246-10.172l22.477-28.766l5.289-6.703c-0.015-0.004-0.023-0.008-0.035-0.016l0.098-0.129
		c-2.777-1.274-5.539-2.586-8.148-4.148c-5.528-3.348-10.102-6.898-13.856-10.035H241.05c-3.468,2.914-7.472,6.054-12.332,9.086
		c-0.121,1.344-0.48,2.672-1.367,3.805l-37.316,47.75c-2.453,3.14-7.031,3.702-10.172,1.246l-2.461-1.918
		c-3.137-2.458-3.699-7.035-1.246-10.172l13.039-16.688l9.859-12.422c-0.058,0.012-0.113,0.016-0.171,0.027l0.14-0.183
		c-6.078,1.176-12.343,1.926-18.797,1.926c-9.625,0-18.363-1.16-26.691-3.481c-5.324-1.476-10.386-3.625-15.305-6.07l-37.305,47.734
		c-2.453,3.14-7.031,3.702-10.172,1.246l-2.457-1.918c-3.141-2.458-3.703-7.035-1.25-10.172l36.129-46.23
		c-1.578-1.215-3.172-2.434-4.527-3.566H88.614c-4.711,3.957-10.379,8.328-17.817,12.285c-7.512,3.961-15.906,6.828-24.851,8.535
		c-2.73,0.477-5.462,0.75-8.262,0.75c-7.918,0-15.289-2.047-21.433-5.598c-0.07,0.07-0.07,0.07-0.137,0.136
		C6.149,305.14,0,318.793,0,333.883c0,21.442,12.578,39.989,30.649,48.954c0.515,0.266,0.976,0.594,1.5,0.839l0.003,0.094
		c0.692,64.386,50.586,116.773,111.219,116.773h225.262c29.946,0,58.078-12.558,79.207-35.363
		c20.34-21.949,31.707-50.867,32.011-81.43v-0.094c5.993-2.75,11.442-6.504,16.039-11.137c9.969-9.898,16.11-23.55,16.11-38.637
		C512,318.109,505.242,303.774,494.39,293.808z M412.785,432.7c-11.988,12.934-27.668,20.058-44.152,20.058H143.371
		c-26.914,0-50.121-18.894-59.274-45.351h258.711l85.09,0.05C424.637,416.828,419.531,425.418,412.785,432.7z" style="fill: rgb(223, 86, 86);"></path>
	<path class="st0" d="M37.68,287.051c1.93,0,3.867-0.179,5.75-0.531c7.625-1.418,14.703-3.855,20.973-7.207
		c6.882-3.625,12.121-7.773,16.39-11.386l3.516-3.054c3.836-3.352,7.156-6.246,10.035-7.938c1.43-0.848,2.652-1.391,3.938-1.75
		c1.05-0.293,2.629-0.629,5.273-0.633c4.629,0.031,6.422,0.774,8.5,1.832c1.965,1.035,4.309,2.726,7.438,5.394
		c1.125,0.95,2.258,1.95,3.438,2.981c4.27,3.75,9.582,8.418,16.664,12.668c5.496,3.278,11.43,5.82,17.61,7.539
		c7.027,1.973,14.637,2.969,23.008,2.973c13.39,0,26.07-3,36.59-8.626c6.879-3.617,12.121-7.77,16.402-11.398l3.48-3.027
		c3.852-3.359,7.168-6.262,10.051-7.953c1.434-0.852,2.656-1.394,3.922-1.75c1.051-0.293,2.618-0.629,5.27-0.633
		c4.622,0.031,6.406,0.774,8.485,1.832c1.969,1.035,4.308,2.73,7.43,5.391c1.121,0.941,2.258,1.941,3.426,2.972
		c4.274,3.754,9.586,8.426,16.668,12.672c5.496,3.282,11.43,5.821,17.617,7.547c7.028,1.973,14.637,2.969,22.606,2.969l0.398,0.004
		c13.379,0,26.062-2.997,36.598-8.626c6.867-3.621,12.118-7.773,16.391-11.398l3.48-3.027c3.852-3.359,7.168-6.262,10.066-7.961
		c1.418-0.844,2.633-1.383,3.898-1.734c1.059-0.297,2.633-0.637,5.278-0.641c4.61,0.031,6.39,0.77,8.453,1.828
		c1.958,1.024,4.305,2.719,7.43,5.387c1.109,0.934,2.242,1.926,3.398,2.949c4.273,3.762,9.594,8.442,16.699,12.707
		c5.507,3.282,11.441,5.828,17.812,7.602c2.961,0.82,6.047,1.242,9.168,1.242h0.008c7.226,0,14.359-2.313,19.562-6.348
		c5.289-4.106,8.199-9.531,8.199-15.285v-15.547l-14.34-0.094c-4.609-0.035-6.39-0.774-8.453-1.828
		c-1.973-1.031-4.309-2.726-7.43-5.387c-1.114-0.937-2.242-1.926-3.398-2.949c-4.274-3.766-9.594-8.446-16.707-12.715
		c-3.34-1.984-6.883-3.535-10.488-4.918c-1.203-0.508-2.34-1.023-3.618-1.523h36.562c12.465,0,22.566-9.379,22.566-20.946V185.54
		h0.004C486.309,88.586,382.543,11.457,256,11.457c-126.535,0-230.305,77.129-237.691,174.082v13.187
		c0,11.566,10.106,20.946,22.566,20.946h18.898l17.625,0.148c-3.707,1.23-7.309,2.629-10.629,4.402
		c-6.871,3.618-12.121,7.766-16.418,11.402l-3.472,3.019c-3.852,3.363-7.176,6.266-10.082,7.973
		c-1.418,0.84-2.633,1.383-3.867,1.726c-0.347,0.098-0.703,0.184-1.074,0.262c-11.098,2.269-18.847,9.87-18.847,18.484v0.863
		C13.008,278.484,24.078,287.051,37.68,287.051z M219.145,224.227c-6.86,3.61-12.106,7.77-16.387,11.394l-3.546,3.082
		c-3.828,3.336-7.126,6.222-9.993,7.906c-1.437,0.848-2.66,1.391-3.93,1.75c-1.05,0.289-2.621,0.625-5.27,0.633
		c-4.625-0.035-6.414-0.774-8.492-1.836c-1.961-1.027-4.309-2.726-7.434-5.386c-1.117-0.938-2.25-1.934-3.422-2.962
		c-4.274-3.762-9.582-8.434-16.691-12.699c-4.57-2.718-9.469-4.789-14.493-6.437h51.477l48.809,0.152
		C226.066,221.055,222.465,222.453,219.145,224.227z M371.477,224.231c-6.863,3.625-12.114,7.77-16.387,11.398l-3.48,3.027
		c-3.852,3.359-7.172,6.258-10.055,7.953c-1.434,0.848-2.656,1.391-3.91,1.746c-1.062,0.293-2.637,0.629-5.278,0.637
		c-4.621-0.035-6.414-0.774-8.477-1.832c-1.973-1.027-4.308-2.73-7.438-5.39c-1.125-0.946-2.262-1.938-3.426-2.973
		c-4.274-3.754-9.586-8.426-16.683-12.676c-4.559-2.714-9.458-4.793-14.496-6.449h51.469l48.8,0.152
		C378.406,221.055,374.801,222.453,371.477,224.231z M60.149,185.524c3.804-37.722,26.855-71.5,61.828-95.886
		c0.094-0.066,0.187-0.137,0.281-0.203c4.286-2.973,8.754-5.805,13.383-8.489c0.113-0.066,0.222-0.137,0.34-0.203
		C169.187,61.567,210.832,50.14,256,50.14c38.699,0,74.805,8.387,105.242,22.848c0.172,0.082,0.336,0.172,0.508,0.254
		c4.808,2.298,9.472,4.75,13.98,7.344c0.473,0.274,0.926,0.566,1.394,0.844c4.102,2.402,8.082,4.922,11.914,7.554
		c0.676,0.465,1.328,0.95,1.996,1.422c3.645,2.578,7.168,5.246,10.535,8.019c0.66,0.543,1.297,1.102,1.949,1.652
		c3.34,2.836,6.559,5.758,9.606,8.786c0.512,0.508,1.008,1.027,1.512,1.543c3.106,3.171,6.074,6.426,8.836,9.781
		c0.324,0.39,0.625,0.789,0.942,1.18c2.855,3.542,5.542,7.164,8,10.89c0.152,0.234,0.289,0.469,0.441,0.703
		c2.524,3.886,4.848,7.859,6.914,11.926c0.05,0.106,0.098,0.215,0.148,0.321c2.098,4.156,3.958,8.402,5.547,12.726
		c0.023,0.066,0.047,0.133,0.07,0.199c1.574,4.316,2.886,8.71,3.934,13.172c0.031,0.133,0.066,0.266,0.098,0.398
		c1.004,4.343,1.718,8.754,2.191,13.214c0.024,0.207,0.062,0.41,0.082,0.622H96.996L60.149,185.524z" style="fill: rgb(223, 86, 86);"></path>
</g>
</svg>
